<svg width="30" height="38" viewBox="0 0 30 38" fill="none" xmlns="http://www.w3.org/2000/svg">
<path fill-rule="evenodd" clip-rule="evenodd" d="M0 33.75C0 32.7554 0.395088 31.8016 1.09835 31.0983C1.80161 30.3951 2.75544 30 3.75 30H25.4167C26.4112 30 27.3651 30.3951 28.0683 31.0983C28.7716 31.8016 29.1667 32.7554 29.1667 33.75C29.1667 34.7446 28.7716 35.6984 28.0683 36.4016C27.3651 37.1049 26.4112 37.5 25.4167 37.5H3.75C2.75544 37.5 1.80161 37.1049 1.09835 36.4016C0.395088 35.6984 0 34.7446 0 33.75ZM3.75 32.5C3.41848 32.5 3.10054 32.6317 2.86612 32.8661C2.6317 33.1005 2.5 33.4185 2.5 33.75C2.5 34.0815 2.6317 34.3995 2.86612 34.6339C3.10054 34.8683 3.41848 35 3.75 35H25.4167C25.7482 35 26.0661 34.8683 26.3005 34.6339C26.535 34.3995 26.6667 34.0815 26.6667 33.75C26.6667 33.4185 26.535 33.1005 26.3005 32.8661C26.0661 32.6317 25.7482 32.5 25.4167 32.5H3.75Z" fill="#262522"/>
<path fill-rule="evenodd" clip-rule="evenodd" d="M0 28.75C0 27.7554 0.395088 26.8016 1.09835 26.0983C1.80161 25.3951 2.75544 25 3.75 25H25.4167C26.4112 25 27.3651 25.3951 28.0683 26.0983C28.7716 26.8016 29.1667 27.7554 29.1667 28.75C29.1667 29.7446 28.7716 30.6984 28.0683 31.4016C27.3651 32.1049 26.4112 32.5 25.4167 32.5H3.75C2.75544 32.5 1.80161 32.1049 1.09835 31.4016C0.395088 30.6984 0 29.7446 0 28.75ZM3.75 27.5C3.41848 27.5 3.10054 27.6317 2.86612 27.8661C2.6317 28.1005 2.5 28.4185 2.5 28.75C2.5 29.0815 2.6317 29.3995 2.86612 29.6339C3.10054 29.8683 3.41848 30 3.75 30H25.4167C25.7482 30 26.0661 29.8683 26.3005 29.6339C26.535 29.3995 26.6667 29.0815 26.6667 28.75C26.6667 28.4185 26.535 28.1005 26.3005 27.8661C26.0661 27.6317 25.7482 27.5 25.4167 27.5H3.75Z" fill="#262522"/>
<path fill-rule="evenodd" clip-rule="evenodd" d="M0 23.75C0 22.7554 0.395088 21.8016 1.09835 21.0983C1.80161 20.3951 2.75544 20 3.75 20H25.4167C26.4112 20 27.3651 20.3951 28.0683 21.0983C28.7716 21.8016 29.1667 22.7554 29.1667 23.75C29.1667 24.7446 28.7716 25.6984 28.0683 26.4016C27.3651 27.1049 26.4112 27.5 25.4167 27.5H3.75C2.75544 27.5 1.80161 27.1049 1.09835 26.4016C0.395088 25.6984 0 24.7446 0 23.75ZM3.75 22.5C3.41848 22.5 3.10054 22.6317 2.86612 22.8661C2.6317 23.1005 2.5 23.4185 2.5 23.75C2.5 24.0815 2.6317 24.3995 2.86612 24.6339C3.10054 24.8683 3.41848 25 3.75 25H25.4167C25.7482 25 26.0661 24.8683 26.3005 24.6339C26.535 24.3995 26.6667 24.0815 26.6667 23.75C26.6667 23.4185 26.535 23.1005 26.3005 22.8661C26.0661 22.6317 25.7482 22.5 25.4167 22.5H3.75Z" fill="#262522"/>
<path fill-rule="evenodd" clip-rule="evenodd" d="M3.75 17.5C3.41848 17.5 3.10054 17.6317 2.86612 17.8661C2.6317 18.1005 2.5 18.4185 2.5 18.75C2.5 19.0815 2.6317 19.3995 2.86612 19.6339C3.10054 19.8683 3.41848 20 3.75 20H25.4167C25.7482 20 26.0661 19.8683 26.3005 19.6339C26.535 19.3995 26.6667 19.0815 26.6667 18.75C26.6667 18.4185 26.535 18.1005 26.3005 17.8661C26.0661 17.6317 25.7482 17.5 25.4167 17.5H17.0833C16.7518 17.5 16.4339 17.3683 16.1994 17.1339C15.965 16.8995 15.8333 16.5815 15.8333 16.25C15.8333 15.9185 15.965 15.6005 16.1994 15.3661C16.4339 15.1317 16.7518 15 17.0833 15H25.4167C26.4112 15 27.3651 15.3951 28.0683 16.0983C28.7716 16.8016 29.1667 17.7554 29.1667 18.75C29.1667 19.7446 28.7716 20.6984 28.0683 21.4016C27.3651 22.1049 26.4112 22.5 25.4167 22.5H3.75C2.75544 22.5 1.80161 22.1049 1.09835 21.4016C0.395088 20.6984 0 19.7446 0 18.75C0 17.7554 0.395088 16.8016 1.09835 16.0983C1.80161 15.3951 2.75544 15 3.75 15H12.0833C12.4149 15 12.7328 15.1317 12.9672 15.3661C13.2016 15.6005 13.3333 15.9185 13.3333 16.25C13.3333 16.5815 13.2016 16.8995 12.9672 17.1339C12.7328 17.3683 12.4149 17.5 12.0833 17.5H3.75Z" fill="#262522"/>
<path fill-rule="evenodd" clip-rule="evenodd" d="M3.75 12.5C3.41848 12.5 3.10054 12.6317 2.86612 12.8661C2.6317 13.1005 2.5 13.4185 2.5 13.75C2.5 14.0815 2.6317 14.3995 2.86612 14.6339C3.10054 14.8683 3.41848 15 3.75 15H12.0833C12.4149 15 12.7328 15.1317 12.9672 15.3661C13.2016 15.6005 13.3333 15.9185 13.3333 16.25C13.3333 16.5815 13.2016 16.8995 12.9672 17.1339C12.7328 17.3683 12.4149 17.5 12.0833 17.5H3.75C2.75544 17.5 1.80161 17.1049 1.09835 16.4016C0.395088 15.6984 0 14.7446 0 13.75C0 12.7554 0.395088 11.8016 1.09835 11.0983C1.80161 10.3951 2.75544 10 3.75 10H12.0833C12.4149 10 12.7328 10.1317 12.9672 10.3661C13.2016 10.6005 13.3333 10.9185 13.3333 11.25C13.3333 11.5815 13.2016 11.8995 12.9672 12.1339C12.7328 12.3683 12.4149 12.5 12.0833 12.5H3.75ZM15.8333 11.25C15.8333 10.9185 15.965 10.6005 16.1994 10.3661C16.4339 10.1317 16.7518 10 17.0833 10H25.4167C26.4112 10 27.3651 10.3951 28.0683 11.0983C28.7716 11.8016 29.1667 12.7554 29.1667 13.75C29.1667 14.7446 28.7716 15.6984 28.0683 16.4016C27.3651 17.1049 26.4112 17.5 25.4167 17.5H17.0833C16.7518 17.5 16.4339 17.3683 16.1994 17.1339C15.965 16.8995 15.8333 16.5815 15.8333 16.25C15.8333 15.9185 15.965 15.6005 16.1994 15.3661C16.4339 15.1317 16.7518 15 17.0833 15H25.4167C25.7482 15 26.0661 14.8683 26.3005 14.6339C26.535 14.3995 26.6667 14.0815 26.6667 13.75C26.6667 13.4185 26.535 13.1005 26.3005 12.8661C26.0661 12.6317 25.7482 12.5 25.4167 12.5H17.0833C16.7518 12.5 16.4339 12.3683 16.1994 12.1339C15.965 11.8995 15.8333 11.5815 15.8333 11.25Z" fill="#262522"/>
<path fill-rule="evenodd" clip-rule="evenodd" d="M3.75 7.5C3.41848 7.5 3.10054 7.6317 2.86612 7.86612C2.6317 8.10054 2.5 8.41848 2.5 8.75C2.5 9.08152 2.6317 9.39946 2.86612 9.63388C3.10054 9.8683 3.41848 10 3.75 10H12.0833C12.4149 10 12.7328 10.1317 12.9672 10.3661C13.2016 10.6005 13.3333 10.9185 13.3333 11.25C13.3333 11.5815 13.2016 11.8995 12.9672 12.1339C12.7328 12.3683 12.4149 12.5 12.0833 12.5H3.75C2.75544 12.5 1.80161 12.1049 1.09835 11.4016C0.395088 10.6984 0 9.74456 0 8.75C0 7.75544 0.395088 6.80161 1.09835 6.09835C1.80161 5.39509 2.75544 5 3.75 5H12.0833C12.4149 5 12.7328 5.1317 12.9672 5.36612C13.2016 5.60054 13.3333 5.91848 13.3333 6.25C13.3333 6.58152 13.2016 6.89946 12.9672 7.13388C12.7328 7.3683 12.4149 7.5 12.0833 7.5H3.75ZM15.8333 6.25C15.8333 5.91848 15.965 5.60054 16.1994 5.36612C16.4339 5.1317 16.7518 5 17.0833 5H25.4167C26.4112 5 27.3651 5.39509 28.0683 6.09835C28.7716 6.80161 29.1667 7.75544 29.1667 8.75C29.1667 9.74456 28.7716 10.6984 28.0683 11.4016C27.3651 12.1049 26.4112 12.5 25.4167 12.5H17.0833C16.7518 12.5 16.4339 12.3683 16.1994 12.1339C15.965 11.8995 15.8333 11.5815 15.8333 11.25C15.8333 10.9185 15.965 10.6005 16.1994 10.3661C16.4339 10.1317 16.7518 10 17.0833 10H25.4167C25.7482 10 26.0661 9.8683 26.3005 9.63388C26.535 9.39946 26.6667 9.08152 26.6667 8.75C26.6667 8.41848 26.535 8.10054 26.3005 7.86612C26.0661 7.6317 25.7482 7.5 25.4167 7.5H17.0833C16.7518 7.5 16.4339 7.3683 16.1994 7.13388C15.965 6.89946 15.8333 6.58152 15.8333 6.25Z" fill="#262522"/>
<path fill-rule="evenodd" clip-rule="evenodd" d="M6.66663 3.75C6.66663 2.75544 7.06171 1.80161 7.76498 1.09835C8.46824 0.395088 9.42206 0 10.4166 0H18.75C19.7445 1.48201e-08 20.6983 0.395088 21.4016 1.09835C22.1049 1.80161 22.5 2.75544 22.5 3.75C22.5 4.74456 22.1049 5.69839 21.4016 6.40165C20.6983 7.10491 19.7445 7.5 18.75 7.5H18.3333V15.4167C18.3333 16.4112 17.9382 17.3651 17.2349 18.0683C16.5317 18.7716 15.5779 19.1667 14.5833 19.1667C13.5887 19.1667 12.6349 18.7716 11.9316 18.0683C11.2284 17.3651 10.8333 16.4112 10.8333 15.4167V7.5H10.4166C9.42206 7.5 8.46824 7.10491 7.76498 6.40165C7.06171 5.69839 6.66663 4.74456 6.66663 3.75ZM10.4166 2.5C10.0851 2.5 9.76716 2.6317 9.53274 2.86612C9.29832 3.10054 9.16663 3.41848 9.16663 3.75C9.16663 4.08152 9.29832 4.39946 9.53274 4.63388C9.76716 4.8683 10.0851 5 10.4166 5H12.0833C12.4148 5 12.7328 5.1317 12.9672 5.36612C13.2016 5.60054 13.3333 5.91848 13.3333 6.25V15.4167C13.3333 15.7482 13.465 16.0661 13.6994 16.3005C13.9338 16.535 14.2518 16.6667 14.5833 16.6667C14.9148 16.6667 15.2328 16.535 15.4672 16.3005C15.7016 16.0661 15.8333 15.7482 15.8333 15.4167V6.25C15.8333 5.91848 15.965 5.60054 16.1994 5.36612C16.4338 5.1317 16.7518 5 17.0833 5H18.75C19.0815 5 19.3994 4.8683 19.6338 4.63388C19.8683 4.39946 20 4.08152 20 3.75C20 3.41848 19.8683 3.10054 19.6338 2.86612C19.3994 2.6317 19.0815 2.5 18.75 2.5H10.4166Z" fill="#262522"/>
</svg>
