<svg width="40" height="40" viewBox="0 0 40 40" fill="none" xmlns="http://www.w3.org/2000/svg">
<path fill-rule="evenodd" clip-rule="evenodd" d="M0 16.25C0 7.275 7.275 0 16.25 0H22.9167C31.8917 0 39.1667 7.275 39.1667 16.25C39.1667 17.0235 38.8594 17.7654 38.3124 18.3124C37.7654 18.8594 37.0235 19.1667 36.25 19.1667H2.91667C2.14312 19.1667 1.40125 18.8594 0.854272 18.3124C0.307291 17.7654 0 17.0235 0 16.25ZM16.25 2.5C12.6033 2.5 9.10591 3.94866 6.52728 6.52728C3.94866 9.10591 2.5 12.6033 2.5 16.25C2.5 16.48 2.68667 16.6667 2.91667 16.6667H36.25C36.3605 16.6667 36.4665 16.6228 36.5446 16.5446C36.6228 16.4665 36.6667 16.3605 36.6667 16.25C36.6667 14.4443 36.311 12.6563 35.62 10.9881C34.929 9.31988 33.9162 7.80409 32.6394 6.52728C31.3626 5.25048 29.8468 4.23766 28.1786 3.54666C26.5103 2.85565 24.7223 2.5 22.9167 2.5H16.25ZM0 32.9167C0 34.5743 0.65848 36.164 1.83058 37.3361C3.00269 38.5082 4.5924 39.1667 6.25 39.1667H32.9167C34.5743 39.1667 36.164 38.5082 37.3361 37.3361C38.5082 36.164 39.1667 34.5743 39.1667 32.9167V29.5833C39.1667 28.8098 38.8594 28.0679 38.3124 27.5209C37.7654 26.974 37.0235 26.6667 36.25 26.6667H17.0833C16.7518 26.6667 16.4339 26.7984 16.1995 27.0328C15.965 27.2672 15.8333 27.5851 15.8333 27.9167C15.8333 28.2482 15.965 28.5661 16.1995 28.8006C16.4339 29.035 16.7518 29.1667 17.0833 29.1667H36.25C36.3605 29.1667 36.4665 29.2106 36.5446 29.2887C36.6228 29.3668 36.6667 29.4728 36.6667 29.5833V32.9167C36.6667 33.9112 36.2716 34.8651 35.5683 35.5683C34.8651 36.2716 33.9112 36.6667 32.9167 36.6667H6.25C5.25544 36.6667 4.30161 36.2716 3.59835 35.5683C2.89509 34.8651 2.5 33.9112 2.5 32.9167V29.5833C2.5 29.4728 2.5439 29.3668 2.62204 29.2887C2.70018 29.2106 2.80616 29.1667 2.91667 29.1667H9.58333C9.91485 29.1667 10.2328 29.035 10.4672 28.8006C10.7016 28.5661 10.8333 28.2482 10.8333 27.9167C10.8333 27.5851 10.7016 27.2672 10.4672 27.0328C10.2328 26.7984 9.91485 26.6667 9.58333 26.6667H2.91667C2.14312 26.6667 1.40125 26.974 0.854272 27.5209C0.307291 28.0679 0 28.8098 0 29.5833V32.9167Z" fill="#262522"/>
<path fill-rule="evenodd" clip-rule="evenodd" d="M0 20.4166C0 19.4221 0.395088 18.4682 1.09835 17.765C1.80161 17.0617 2.75544 16.6666 3.75 16.6666H35.4167C36.4112 16.6666 37.3651 17.0617 38.0683 17.765C38.7716 18.4682 39.1667 19.4221 39.1667 20.4166C39.1667 21.4112 38.7716 22.365 38.0683 23.0683C37.3651 23.7715 36.4112 24.1666 35.4167 24.1666H3.75C2.75544 24.1666 1.80161 23.7715 1.09835 23.0683C0.395088 22.365 0 21.4112 0 20.4166ZM3.75 19.1666C3.41848 19.1666 3.10054 19.2983 2.86612 19.5327C2.6317 19.7672 2.5 20.0851 2.5 20.4166C2.5 20.7481 2.6317 21.0661 2.86612 21.3005C3.10054 21.5349 3.41848 21.6666 3.75 21.6666H35.4167C35.7482 21.6666 36.0661 21.5349 36.3006 21.3005C36.535 21.0661 36.6667 20.7481 36.6667 20.4166C36.6667 20.0851 36.535 19.7672 36.3006 19.5327C36.0661 19.2983 35.7482 19.1666 35.4167 19.1666H3.75Z" fill="#262522"/>
<path fill-rule="evenodd" clip-rule="evenodd" d="M3.75 24.1667C3.41848 24.1667 3.10054 24.2984 2.86612 24.5328C2.6317 24.7672 2.5 25.0852 2.5 25.4167C2.5 25.7482 2.6317 26.0662 2.86612 26.3006C3.10054 26.535 3.41848 26.6667 3.75 26.6667H9.58333C9.91485 26.6667 10.2328 26.7984 10.4672 27.0328C10.7016 27.2672 10.8333 27.5852 10.8333 27.9167V29.25C10.8333 29.891 11.0879 30.5057 11.5412 30.9589C11.9944 31.4121 12.6091 31.6667 13.25 31.6667C13.8909 31.6667 14.5056 31.4121 14.9588 30.9589C15.4121 30.5057 15.6667 29.891 15.6667 29.25V27.9167C15.6667 27.5852 15.7984 27.2672 16.0328 27.0328C16.2672 26.7984 16.5851 26.6667 16.9167 26.6667H35.4167C35.7482 26.6667 36.0661 26.535 36.3006 26.3006C36.535 26.0662 36.6667 25.7482 36.6667 25.4167C36.6667 25.0852 36.535 24.7672 36.3006 24.5328C36.0661 24.2984 35.7482 24.1667 35.4167 24.1667H3.75ZM0 25.4167C0 24.4221 0.395088 23.4683 1.09835 22.7651C1.80161 22.0618 2.75544 21.6667 3.75 21.6667H35.4167C36.4112 21.6667 37.3651 22.0618 38.0683 22.7651C38.7716 23.4683 39.1667 24.4221 39.1667 25.4167C39.1667 26.4113 38.7716 27.3651 38.0683 28.0684C37.3651 28.7716 36.4112 29.1667 35.4167 29.1667H18.1667V29.25C18.1667 30.554 17.6487 31.8046 16.7266 32.7266C15.8046 33.6487 14.554 34.1667 13.25 34.1667C11.946 34.1667 10.6954 33.6487 9.77339 32.7266C8.85134 31.8046 8.33333 30.554 8.33333 29.25V29.1667H3.75C2.75544 29.1667 1.80161 28.7716 1.09835 28.0684C0.395088 27.3651 0 26.4113 0 25.4167ZM12.1333 8.70004C12.3674 8.93441 12.4989 9.25212 12.4989 9.58337C12.4989 9.91462 12.3674 10.2323 12.1333 10.4667L10.4667 12.1334C10.2297 12.3542 9.9163 12.4744 9.59246 12.4687C9.26863 12.463 8.95965 12.3318 8.73063 12.1027C8.50161 11.8737 8.37042 11.5647 8.36471 11.2409C8.359 10.9171 8.4792 10.6037 8.7 10.3667L10.3667 8.70004C10.601 8.46595 10.9187 8.33447 11.25 8.33447C11.5813 8.33447 11.899 8.46595 12.1333 8.70004ZM20.4667 8.70004C20.7008 8.93441 20.8322 9.25212 20.8322 9.58337C20.8322 9.91462 20.7008 10.2323 20.4667 10.4667L18.8 12.1334C18.6856 12.2562 18.5476 12.3547 18.3942 12.423C18.2409 12.4913 18.0754 12.5281 17.9075 12.531C17.7397 12.534 17.573 12.5031 17.4173 12.4402C17.2617 12.3774 17.1203 12.2838 17.0016 12.1651C16.8829 12.0464 16.7893 11.905 16.7265 11.7494C16.6636 11.5937 16.6327 11.427 16.6357 11.2592C16.6386 11.0913 16.6754 10.9258 16.7437 10.7725C16.812 10.6191 16.9105 10.4811 17.0333 10.3667L18.7 8.70004C18.9344 8.46595 19.2521 8.33447 19.5833 8.33447C19.9146 8.33447 20.2323 8.46595 20.4667 8.70004ZM28.8 8.70004C29.0341 8.93441 29.1656 9.25212 29.1656 9.58337C29.1656 9.91462 29.0341 10.2323 28.8 10.4667L27.1333 12.1334C27.0189 12.2562 26.8809 12.3547 26.7276 12.423C26.5742 12.4913 26.4087 12.5281 26.2409 12.531C26.073 12.534 25.9063 12.5031 25.7507 12.4402C25.595 12.3774 25.4536 12.2838 25.3349 12.1651C25.2162 12.0464 25.1227 11.905 25.0598 11.7494C24.9969 11.5937 24.9661 11.427 24.969 11.2592C24.972 11.0913 25.0087 10.9258 25.077 10.7725C25.1454 10.6191 25.2439 10.4811 25.3667 10.3667L27.0333 8.70004C27.2677 8.46595 27.5854 8.33447 27.9167 8.33447C28.2479 8.33447 28.5656 8.46595 28.8 8.70004Z" fill="#262522"/>
</svg>
