<svg width="36" height="36" viewBox="0 0 36 36" fill="none" xmlns="http://www.w3.org/2000/svg">
<path fill-rule="evenodd" clip-rule="evenodd" d="M6.81346 5.47167C4.01512 7.29 2.50012 9.655 2.50012 12.085C2.50012 14.5133 4.01679 16.8783 6.81346 18.6967C9.59679 20.5067 13.5201 21.6683 17.9168 21.6683C22.3135 21.6683 26.2351 20.5067 29.0201 18.6967C31.8185 16.8783 33.3335 14.5133 33.3335 12.085C33.3335 9.655 31.8168 7.29 29.0201 5.47167C26.2368 3.66333 22.3135 2.50167 17.9168 2.50167C13.5201 2.50167 9.59845 3.66167 6.81346 5.47167ZM5.45012 3.375C8.69679 1.265 13.1085 0 17.9168 0C22.7251 0 27.1368 1.26667 30.3835 3.375C33.6168 5.47833 35.8335 8.53 35.8335 12.085C35.8335 15.6383 33.6168 18.69 30.3835 20.7917C27.1368 22.9033 22.7251 24.1667 17.9168 24.1667C13.1085 24.1667 8.69679 22.9033 5.45012 20.7933C2.21679 18.69 0.00012207 15.6383 0.00012207 12.0833C0.00012207 8.53 2.21679 5.47833 5.45012 3.375Z" fill="#262522"/>
<path fill-rule="evenodd" clip-rule="evenodd" d="M1.15837 10.63C1.48874 10.6056 1.81526 10.7134 2.0662 10.9297C2.31714 11.1459 2.47198 11.453 2.4967 11.7833L3.05503 19.325C3.33059 23.0782 5.01598 26.5881 7.77273 29.1499C10.5295 31.7117 14.1534 33.1355 17.9167 33.1355C21.68 33.1355 25.3039 31.7117 28.0607 29.1499C30.8174 26.5881 32.5028 23.0782 32.7784 19.325L33.3367 11.7833C33.361 11.4527 33.5157 11.1452 33.7667 10.9286C34.0177 10.712 34.3444 10.604 34.675 10.6283C35.0057 10.6526 35.3131 10.8073 35.5297 11.0583C35.7463 11.3093 35.8544 11.636 35.83 11.9666L35.2717 19.51C34.9501 23.8929 32.982 27.9919 29.7627 30.9836C26.5434 33.9752 22.3115 35.6381 17.9167 35.6381C13.522 35.6381 9.28996 33.9752 6.07069 30.9836C2.85143 27.9919 0.883338 23.8929 0.561701 19.51L0.0033679 11.9683C-0.00867424 11.8046 0.0116489 11.6401 0.0631766 11.4842C0.114704 11.3284 0.196428 11.1842 0.30368 11.0599C0.410932 10.9356 0.541614 10.8337 0.688262 10.7599C0.834909 10.6862 0.994652 10.642 1.15837 10.63Z" fill="#262522"/>
<path fill-rule="evenodd" clip-rule="evenodd" d="M9.58337 7.39666C9.25185 7.39666 8.93391 7.52836 8.69949 7.76278C8.46507 7.9972 8.33337 8.31514 8.33337 8.64666C8.33337 8.97818 8.46507 9.29613 8.69949 9.53055C8.93391 9.76497 9.25185 9.89666 9.58337 9.89666C9.91489 9.89666 10.2328 9.76497 10.4673 9.53055C10.7017 9.29613 10.8334 8.97818 10.8334 8.64666C10.8334 8.31514 10.7017 7.9972 10.4673 7.76278C10.2328 7.52836 9.91489 7.39666 9.58337 7.39666ZM5.83337 8.64666C5.83337 8.15421 5.93037 7.66657 6.11882 7.2116C6.30728 6.75663 6.5835 6.34323 6.93172 5.99501C7.27994 5.64679 7.69334 5.37057 8.14831 5.18211C8.60328 4.99366 9.09091 4.89666 9.58337 4.89666C10.0758 4.89666 10.5635 4.99366 11.0184 5.18211C11.4734 5.37057 11.8868 5.64679 12.235 5.99501C12.5832 6.34323 12.8595 6.75663 13.0479 7.2116C13.2364 7.66657 13.3334 8.15421 13.3334 8.64666C13.3334 9.64123 12.9383 10.5951 12.235 11.2983C11.5318 12.0016 10.5779 12.3967 9.58337 12.3967C8.58881 12.3967 7.63498 12.0016 6.93172 11.2983C6.22846 10.5951 5.83337 9.64123 5.83337 8.64666ZM28.75 10.73C28.4185 10.73 28.1006 10.8617 27.8661 11.0961C27.6317 11.3305 27.5 11.6485 27.5 11.98C27.5 12.3115 27.6317 12.6295 27.8661 12.8639C28.1006 13.0983 28.4185 13.23 28.75 13.23C29.0816 13.23 29.3995 13.0983 29.6339 12.8639C29.8683 12.6295 30 12.3115 30 11.98C30 11.6485 29.8683 11.3305 29.6339 11.0961C29.3995 10.8617 29.0816 10.73 28.75 10.73ZM25 11.98C25 10.9854 25.3951 10.0316 26.0984 9.32835C26.8016 8.62509 27.7555 8.23 28.75 8.23C29.7446 8.23 30.6984 8.62509 31.4017 9.32835C32.1049 10.0316 32.5 10.9854 32.5 11.98C32.5 12.9746 32.1049 13.9284 31.4017 14.6316C30.6984 15.3349 29.7446 15.73 28.75 15.73C27.7555 15.73 26.8016 15.3349 26.0984 14.6316C25.3951 13.9284 25 12.9746 25 11.98ZM21.1934 5.97C20.6534 6.15 20.0067 6.57833 19.4484 7.26333C18.89 7.94666 18.6 8.66666 18.5334 9.23333C18.465 9.81666 18.6367 10.055 18.725 10.1283C18.815 10.2 19.0817 10.32 19.6384 10.135C20.18 9.95666 20.8267 9.52833 21.385 8.84333C21.9434 8.16 22.2334 7.43833 22.3 6.87166C22.3684 6.28833 22.1967 6.05166 22.1084 5.97833C22.0184 5.90666 21.7517 5.78666 21.1934 5.97ZM20.4084 3.59833C21.45 3.25333 22.7084 3.24166 23.6884 4.04166C24.6684 4.84166 24.9117 6.075 24.7834 7.165C24.6534 8.27166 24.135 9.42666 23.3234 10.4233C22.51 11.4183 21.4834 12.1583 20.425 12.5083C19.3834 12.8533 18.125 12.865 17.145 12.065C16.165 11.265 15.9217 10.0317 16.05 8.94166C16.18 7.835 16.6984 6.68 17.51 5.68333C18.3234 4.68666 19.35 3.94833 20.4084 3.59833ZM13.705 11.5633C13.9108 11.5633 14.1134 11.6142 14.2948 11.7113C14.4763 11.8084 14.6309 11.9488 14.745 12.12L18.0784 17.12C18.2039 17.3082 18.2759 17.527 18.2868 17.753C18.2977 17.979 18.2471 18.2037 18.1404 18.4031C18.0336 18.6026 17.8748 18.7694 17.6807 18.8856C17.4866 19.0019 17.2646 19.0633 17.0384 19.0633H10.3717C10.1455 19.0633 9.92347 19.0019 9.7294 18.8856C9.53532 18.7694 9.37644 18.6026 9.26969 18.4031C9.16294 18.2037 9.11233 17.979 9.12325 17.753C9.13417 17.527 9.20622 17.3082 9.3317 17.12L12.665 12.12C12.7792 11.9488 12.9338 11.8084 13.1152 11.7113C13.2967 11.6142 13.4993 11.5633 13.705 11.5633ZM12.7067 16.5633H14.7017L13.705 15.0667L12.7067 16.5633ZM21.205 14.8967C21.5366 14.8967 21.8545 15.0284 22.0889 15.2628C22.3233 15.4972 22.455 15.8151 22.455 16.1467V19.48C22.455 19.8115 22.3233 20.1295 22.0889 20.3639C21.8545 20.5983 21.5366 20.73 21.205 20.73C20.8735 20.73 20.5556 20.5983 20.3211 20.3639C20.0867 20.1295 19.955 19.8115 19.955 19.48V16.1467C19.955 15.8151 20.0867 15.4972 20.3211 15.2628C20.5556 15.0284 20.8735 14.8967 21.205 14.8967ZM24.5384 14.0633C24.8699 14.0633 25.1878 14.195 25.4223 14.4294C25.6567 14.6639 25.7884 14.9818 25.7884 15.3133V18.6467C25.7884 18.9782 25.6567 19.2961 25.4223 19.5305C25.1878 19.765 24.8699 19.8967 24.5384 19.8967C24.2068 19.8967 23.8889 19.765 23.6545 19.5305C23.4201 19.2961 23.2884 18.9782 23.2884 18.6467V15.3133C23.2884 14.9818 23.4201 14.6639 23.6545 14.4294C23.8889 14.195 24.2068 14.0633 24.5384 14.0633ZM4.4867 12.7633C4.60279 12.6472 4.74062 12.555 4.89233 12.4922C5.04404 12.4293 5.20665 12.3969 5.37087 12.3969C5.53509 12.3969 5.6977 12.4293 5.84941 12.4922C6.00112 12.555 6.13895 12.6472 6.25504 12.7633L8.75504 15.2633C8.87785 15.3778 8.97635 15.5158 9.04467 15.6691C9.11299 15.8224 9.14973 15.988 9.15269 16.1558C9.15565 16.3236 9.12478 16.4903 9.06191 16.646C8.99904 16.8016 8.90546 16.943 8.78677 17.0617C8.66807 17.1804 8.52668 17.274 8.37103 17.3369C8.21538 17.3997 8.04867 17.4306 7.88083 17.4276C7.71299 17.4247 7.54747 17.388 7.39414 17.3196C7.24081 17.2513 7.10281 17.1528 6.98837 17.03L4.48837 14.53C4.25429 14.2956 4.1228 13.9779 4.1228 13.6467C4.1228 13.3154 4.25429 12.9977 4.48837 12.7633H4.4867Z" fill="#262522"/>
</svg>
