<svg width="38" height="38" viewBox="0 0 38 38" fill="none" xmlns="http://www.w3.org/2000/svg">
<path fill-rule="evenodd" clip-rule="evenodd" d="M17.0888 2.29805C17.2598 2.29237 17.4301 2.32183 17.5892 2.38461C17.7483 2.4474 17.8928 2.54216 18.0138 2.66305L20.3705 5.01972C22.7928 7.44205 24.1536 10.7274 24.1536 14.1531C24.1536 17.5787 22.7928 20.8641 20.3705 23.2864L19.1922 24.4647C14.1388 29.5181 5.89384 29.4331 0.858842 24.3981C0.334395 23.8742 0.0281357 23.1709 0.00184417 22.4301C-0.0244473 21.6893 0.231185 20.9661 0.717175 20.4064L16.1888 2.72305C16.3018 2.59435 16.4399 2.49022 16.5947 2.41711C16.7495 2.34401 16.9177 2.30348 17.0888 2.29805ZM17.1905 5.37472L2.59884 22.0531C2.53081 22.1354 2.49601 22.2402 2.50125 22.3469C2.50649 22.4536 2.5514 22.5544 2.62718 22.6297C6.70384 26.7081 13.3655 26.7564 17.4255 22.6964L18.6038 21.5197C19.5714 20.5524 20.3389 19.404 20.8626 18.14C21.3863 16.876 21.6558 15.5212 21.6558 14.1531C21.6558 12.7849 21.3863 11.4301 20.8626 10.1661C20.3389 8.90215 19.5714 7.7537 18.6038 6.78639L17.1905 5.37472Z" fill="#262522"/>
<path fill-rule="evenodd" clip-rule="evenodd" d="M23.4539 14.6865C25.2646 14.4516 27.105 14.6351 28.8336 15.2228C30.5623 15.8105 32.1332 16.7867 33.4256 18.0765L34.5139 19.1648C34.6344 19.2855 34.729 19.4296 34.7918 19.5882C34.8545 19.7468 34.8842 19.9166 34.8789 20.0871C34.8736 20.2576 34.8334 20.4252 34.7609 20.5796C34.6884 20.7339 34.585 20.8719 34.4572 20.9848L16.8439 36.5548C16.2937 37.0409 15.5789 37.299 14.8451 37.2767C14.1113 37.2544 13.4136 36.9534 12.8939 36.4348C11.5189 35.0615 10.7972 33.6748 10.5139 32.1415C10.2406 30.6698 10.3906 29.1382 10.5906 27.5498C10.608 27.3845 10.6583 27.2243 10.7384 27.0787C10.8185 26.933 10.9268 26.8048 11.0571 26.7015C11.1874 26.5982 11.337 26.522 11.4971 26.4772C11.6572 26.4324 11.8246 26.4201 11.9895 26.4408C12.1545 26.4615 12.3136 26.5149 12.4577 26.5979C12.6017 26.6809 12.7277 26.7918 12.8284 26.9241C12.9291 27.0564 13.0023 27.2074 13.0439 27.3684C13.0855 27.5294 13.0946 27.697 13.0706 27.8615C12.8689 29.4632 12.7772 30.6398 12.9706 31.6865C13.1539 32.6698 13.6056 33.6115 14.6606 34.6665C14.8039 34.8115 15.0356 34.8165 15.1889 34.6832L31.8056 19.9915L31.6572 19.8448C30.6344 18.8243 29.3911 18.0522 28.0229 17.5878C26.6547 17.1235 25.1982 16.9793 23.7656 17.1665C23.6011 17.1905 23.4334 17.1814 23.2725 17.1399C23.1115 17.0983 22.9605 17.025 22.8282 16.9243C22.6959 16.8237 22.585 16.6976 22.502 16.5536C22.419 16.4095 22.3656 16.2504 22.3449 16.0854C22.3241 15.9205 22.3365 15.7531 22.3813 15.593C22.426 15.4329 22.5023 15.2833 22.6056 15.153C22.7088 15.0228 22.8371 14.9144 22.9827 14.8343C23.1284 14.7542 23.2886 14.7039 23.4539 14.6865Z" fill="#262522"/>
<path fill-rule="evenodd" clip-rule="evenodd" d="M1.06881 22.8414C1.30319 22.6073 1.6209 22.4759 1.95215 22.4759C2.2834 22.4759 2.6011 22.6073 2.83548 22.8414L14.4088 34.4148C14.5316 34.5292 14.6301 34.6672 14.6984 34.8205C14.7668 34.9739 14.8035 35.1394 14.8065 35.3072C14.8094 35.4751 14.7786 35.6418 14.7157 35.7974C14.6528 35.9531 14.5592 36.0945 14.4405 36.2132C14.3218 36.3319 14.1805 36.4254 14.0248 36.4883C13.8692 36.5512 13.7024 36.582 13.5346 36.5791C13.3668 36.5761 13.2012 36.5394 13.0479 36.4711C12.8946 36.4027 12.7566 36.3042 12.6421 36.1814L1.06881 24.6098C0.83473 24.3754 0.703247 24.0577 0.703247 23.7264C0.703247 23.3952 0.83473 23.0775 1.06881 22.8431V22.8414ZM25.5955 1.0731C27.0662 0.394051 28.7098 0.182406 30.3045 0.466711C31.8993 0.751015 33.3684 1.51759 34.5139 2.66303C35.6593 3.80847 36.4259 5.27765 36.7102 6.8724C36.9945 8.46715 36.7829 10.1107 36.1038 11.5814C36.9515 12.9398 37.3141 14.5451 37.1325 16.1359C36.9509 17.7267 36.2358 19.2091 35.1038 20.3414C34.8682 20.5692 34.5525 20.6954 34.2247 20.6927C33.897 20.69 33.5834 20.5587 33.3515 20.327C33.1197 20.0954 32.988 19.7819 32.985 19.4542C32.982 19.1264 33.1079 18.8106 33.3355 18.5748C34.1344 17.7762 34.6103 16.7107 34.6718 15.5827C34.7334 14.4548 34.3762 13.3438 33.6688 12.4631C33.5086 12.2642 33.4131 12.0211 33.3952 11.7663C33.3773 11.5115 33.4379 11.2574 33.5688 11.0381C34.1852 10.0023 34.4387 8.7907 34.2893 7.59473C34.14 6.39875 33.5962 5.28668 32.7441 4.43434C31.8919 3.58199 30.78 3.038 29.584 2.88836C28.3881 2.73872 27.1764 2.99198 26.1405 3.6081C25.921 3.73937 25.6665 3.80017 25.4114 3.78229C25.1563 3.7644 24.9128 3.6687 24.7138 3.5081C23.8332 2.80121 22.7226 2.4443 21.595 2.50581C20.4675 2.56733 19.4023 3.04294 18.6038 3.84143C18.3669 4.06223 18.0534 4.18243 17.7296 4.17672C17.4058 4.17101 17.0968 4.03982 16.8678 3.8108C16.6388 3.58178 16.5076 3.2728 16.5019 2.94897C16.4961 2.62513 16.6163 2.31172 16.8371 2.07476C17.9692 0.942918 19.4511 0.22779 21.0416 0.0458968C22.632 -0.135996 24.2371 0.226068 25.5955 1.0731Z" fill="#262522"/>
<path fill-rule="evenodd" clip-rule="evenodd" d="M31.3438 11.7981C31.3438 11.4666 31.2121 11.1487 30.9777 10.9142C30.7433 10.6798 30.4253 10.5481 30.0938 10.5481H27.7372C27.4056 10.5481 27.0877 10.6798 26.8533 10.9142C26.6189 11.1487 26.4872 11.4666 26.4872 11.7981C26.4872 12.1297 26.6189 12.4476 26.8533 12.682C27.0877 12.9164 27.4056 13.0481 27.7372 13.0481H30.0938C30.4253 13.0481 30.7433 12.9164 30.9777 12.682C31.2121 12.4476 31.3438 12.1297 31.3438 11.7981ZM24.1305 7.08313C24.1305 7.7748 24.6905 8.33313 25.3805 8.33313H27.7372C28.0687 8.33313 28.3866 8.20143 28.621 7.96701C28.8555 7.73259 28.9872 7.41465 28.9872 7.08313C28.9872 6.75161 28.8555 6.43367 28.621 6.19925C28.3866 5.96483 28.0687 5.83313 27.7372 5.83313H25.3805C25.049 5.83313 24.731 5.96483 24.4966 6.19925C24.2622 6.43367 24.1305 6.75161 24.1305 7.08313Z" fill="#262522"/>
</svg>
